HIERARCHY
ROOT Hips
{
	OFFSET -0.001795 -0.223333 0.028219
	CHANNELS 6 Xposition Yposition Zposition Zrotation Yrotation Xrotation 
	JOINT LeftUpLeg
	{
		OFFSET 0.069520 -0.091406 -0.006815
		CHANNELS 3 Zrotation Yrotation Xrotation
		JOINT LeftLeg
		{
			OFFSET 0.034277 -0.375199 -0.004496
			CHANNELS 3 Zrotation Yrotation Xrotation
			JOINT LeftFoot
			{
				OFFSET -0.013596 -0.397961 -0.043693
				CHANNELS 3 Zrotation Yrotation Xrotation
				JOINT LeftToe
				{
					OFFSET 0.026358 -0.055791 0.119288
					CHANNELS 3 Zrotation Yrotation Xrotation
					End Site
					{
						OFFSET 0.000000 0.000000 0.000000
					}
				}
			}
		}
	}
	JOINT RightUpLeg
	{
		OFFSET -0.067670 -0.090522 -0.004320
		CHANNELS 3 Zrotation Yrotation Xrotation
		JOINT RightLeg
		{
			OFFSET -0.038290 -0.382569 -0.008850
			CHANNELS 3 Zrotation Yrotation Xrotation
			JOINT RightFoot
			{
				OFFSET 0.015774 -0.398415 -0.042312
				CHANNELS 3 Zrotation Yrotation Xrotation
				JOINT RightToe
				{
					OFFSET -0.025372 -0.048144 0.123348
					CHANNELS 3 Zrotation Yrotation Xrotation
					End Site
					{
						OFFSET 0.000000 0.000000 0.000000
					}
				}
			}
		}
	}
	JOINT Spine
	{
		OFFSET -0.002533 0.108963 -0.026696
		CHANNELS 3 Zrotation Yrotation Xrotation
		JOINT Spine1
		{
			OFFSET 0.005487 0.135180 0.001092
			CHANNELS 3 Zrotation Yrotation Xrotation
			JOINT Spine2
			{
				OFFSET 0.001457 0.052922 0.025425
				CHANNELS 3 Zrotation Yrotation Xrotation
				JOINT Neck
				{
					OFFSET -0.002778 0.213870 -0.042857
					CHANNELS 3 Zrotation Yrotation Xrotation
					JOINT Head
					{
						OFFSET 0.005152 0.064970 0.051349
						CHANNELS 3 Zrotation Yrotation Xrotation
						End Site
						{
							OFFSET 0.000000 0.000000 0.000000
						}
					}
				}
				JOINT LeftShoulder
				{
					OFFSET 0.078845 0.121749 -0.034090
					CHANNELS 3 Zrotation Yrotation Xrotation
					JOINT LeftArm
					{
						OFFSET 0.090977 0.030469 -0.008868
						CHANNELS 3 Zrotation Yrotation Xrotation
						JOINT LeftForeArm
						{
							OFFSET 0.259612 -0.012772 -0.027456
							CHANNELS 3 Zrotation Yrotation Xrotation
							JOINT LeftHand
							{
								OFFSET 0.249234 0.008986 -0.001171
								CHANNELS 3 Zrotation Yrotation Xrotation
								End Site
								{
									OFFSET 0.000000 0.000000 0.000000
								}
							}
						}
					}
				}
				JOINT RightShoulder
				{
					OFFSET -0.081759 0.118833 -0.038615
					CHANNELS 3 Zrotation Yrotation Xrotation
					JOINT RightArm
					{
						OFFSET -0.096012 0.032551 -0.009143
						CHANNELS 3 Zrotation Yrotation Xrotation
						JOINT RightForeArm
						{
							OFFSET -0.253742 -0.013329 -0.021401
							CHANNELS 3 Zrotation Yrotation Xrotation
							JOINT RightHand
							{
								OFFSET -0.255298 0.007772 -0.005559
								CHANNELS 3 Zrotation Yrotation Xrotation
								End Site
								{
									OFFSET 0.000000 0.000000 0.000000
								}
							}
						}
					}
				}
			}
		}
	}
}
MOTION
Frames: 16
Frame Time: 0.050000
0.000000 0.715781 0.000000 2.020574 -1.032485 3.499095 7.177217 -1.326439 -49.231822 -9.869211 6.436235 71.908393 6.824145 0.828950 -33.903478 0.000000 0.000000 0.000000 -9.726895 0.746208 -24.871942 0.260007 4.185968 77.448469 -1.663516 -5.168632 2.299552 0.000000 0.000000 0.000000 -3.770289 -0.019190 17.283218 -1.033899 0.578630 -6.371239 3.124108 -0.211511 7.065772 -5.116641 4.075104 -22.243237 0.000000 0.000000 0.000000 -4.083674 -10.164389 3.678506 -15.149554 -36.497338 1.212194 117.074805 -30.083411 -42.277490 0.000000 0.000000 0.000000 11.893908 10.576482 3.674260 59.818455 10.384463 -0.822243 -4.095881 50.833951 -0.074327 0.000000 0.000000 0.000000 
0.000618 0.708107 0.002767 1.523254 -0.698498 3.761175 6.862715 -1.621702 -51.828049 -8.746009 5.583743 75.616630 6.423850 0.867286 -31.494017 0.000000 0.000000 0.000000 -8.096990 1.074095 -26.245080 -1.292967 5.836671 80.234266 0.058360 -2.114354 4.672239 0.000000 0.000000 0.000000 -3.555599 -0.067384 17.491443 -2.083772 1.013984 -7.133068 4.371146 -0.077558 7.054248 -7.515556 5.337365 -23.188738 0.000000 0.000000 0.000000 -3.606932 -9.709130 3.488198 -15.599579 -40.482725 1.712715 120.347508 -28.636231 -42.536045 0.000000 0.000000 0.000000 10.847887 10.437230 3.621885 59.322216 7.929499 -2.057684 -0.424997 54.073905 1.730143 0.000000 0.000000 0.000000 
0.000798 0.700967 0.004661 1.469934 0.566773 3.482848 6.548973 -2.108377 -52.085698 -8.757670 5.138677 76.770110 6.791032 0.673388 -33.583092 0.000000 0.000000 0.000000 -8.786474 0.818343 -25.573698 -0.021402 3.830132 81.442456 -1.441124 -4.838300 2.884740 0.000000 0.000000 0.000000 -3.487040 -0.120102 17.185459 -0.314606 0.282487 -5.253277 2.990959 -0.893901 5.666645 -9.168771 6.202839 -22.863650 0.000000 0.000000 0.000000 -2.994810 -10.448960 3.729017 -13.444643 -41.554115 1.308651 117.325101 -28.156225 -39.823191 0.000000 0.000000 0.000000 12.862347 11.459818 4.099357 57.118868 8.573304 -1.551205 -3.186081 53.581066 0.303860 0.000000 0.000000 0.000000 
0.000763 0.698572 0.005862 2.020554 0.753122 3.634624 5.069404 -2.877160 -52.626432 -7.667180 4.041523 77.661998 6.881335 1.298735 -33.517487 0.000000 0.000000 0.000000 -8.639445 0.827761 -25.188791 -0.951632 4.827316 82.720082 -1.459461 -3.088703 -1.431209 0.000000 0.000000 0.000000 -3.978993 -0.031886 16.688741 -0.807469 0.497875 -5.554400 3.508388 -1.813785 5.909276 -10.513657 6.871622 -22.040588 0.000000 0.000000 0.000000 -1.836871 -10.015994 3.586346 -13.061475 -42.343333 1.314242 115.359113 -27.356923 -36.841690 0.000000 0.000000 0.000000 11.226812 11.872635 4.111363 57.761216 8.750005 -1.530567 -2.717300 54.741488 0.354778 0.000000 0.000000 0.000000 
0.000457 0.697011 0.006669 1.923657 0.792874 3.598390 3.999285 -3.374876 -52.402914 -6.163161 2.514108 78.031560 7.209140 1.844482 -34.925859 0.000000 0.000000 0.000000 -8.914304 0.762117 -24.703633 -0.753452 4.540115 82.263448 -1.477468 -2.529067 -2.725425 0.000000 0.000000 0.000000 -4.274913 0.018159 16.140418 -0.797776 0.478384 -4.761281 3.435213 -1.898358 5.416016 -10.581843 6.881396 -22.155112 0.000000 0.000000 0.000000 -1.616443 -10.782170 3.860138 -10.147852 -42.610531 0.526645 116.306071 -27.251424 -37.385639 0.000000 0.000000 0.000000 11.764079 12.468347 4.367998 57.170244 9.381199 -1.155309 -5.111905 54.408746 -0.881493 0.000000 0.000000 0.000000 
0.000020 0.695504 0.007068 1.500327 1.112542 3.606143 2.839488 -3.982155 -52.185960 -4.172244 0.335713 78.355263 7.564584 2.293206 -36.609303 0.000000 0.000000 0.000000 -8.725338 0.767642 -24.221275 -0.934708 4.521111 82.311878 -0.967709 0.037763 -4.859172 0.000000 0.000000 0.000000 -4.243669 0.003000 16.057449 -0.488770 0.336837 -4.168368 3.789167 -2.152701 5.431607 -11.044243 7.080719 -22.635394 0.000000 0.000000 0.000000 -1.577254 -10.774475 3.865660 -8.102277 -43.217586 -0.037010 117.595955 -26.452075 -37.075315 0.000000 0.000000 0.000000 11.916797 13.289299 4.725238 56.613718 10.085173 -0.811422 -8.291591 54.504153 -2.505255 0.000000 0.000000 0.000000 
-0.000561 0.694779 0.007248 1.597521 1.369826 3.459006 2.143680 -4.339394 -51.862425 -3.465692 -0.500608 78.356179 7.719708 2.497252 -37.344231 0.000000 0.000000 0.000000 -8.776988 0.738321 -24.302749 -0.969851 4.465465 83.010980 -0.707506 0.478114 -4.323917 0.000000 0.000000 0.000000 -4.558444 0.044866 16.121233 -0.288224 0.263114 -4.516448 3.870889 -1.895004 5.822809 -10.897387 7.070000 -22.429383 0.000000 0.000000 0.000000 -1.629144 -10.780857 3.849925 -5.411442 -43.989293 -0.872064 116.720612 -24.795145 -34.437738 0.000000 0.000000 0.000000 12.212623 13.283477 4.810394 55.804012 10.420457 -0.687194 -8.907203 55.113000 -2.749837 0.000000 0.000000 0.000000 
-0.000883 0.692709 0.007309 1.589040 1.572337 3.422609 1.689985 -4.622054 -52.066408 -2.936254 -1.147991 78.864400 7.782348 2.661621 -37.569740 0.000000 0.000000 0.000000 -8.541733 0.769968 -24.443440 -1.045970 4.493082 83.892499 -0.856869 0.201031 -4.585966 0.000000 0.000000 0.000000 -4.871668 0.088361 15.978908 0.235848 0.035276 -4.324471 4.049286 -1.513216 5.697998 -11.045861 7.198298 -22.304471 0.000000 0.000000 0.000000 -1.608837 -10.559922 3.742891 -3.723959 -44.731372 -1.425917 116.580817 -22.782402 -31.740438 0.000000 0.000000 0.000000 12.034766 13.450170 4.969549 55.658526 10.882380 -0.460453 -9.641267 54.312190 -2.969139 0.000000 0.000000 0.000000 
-0.000954 0.690516 0.007326 1.677377 1.055200 3.439098 1.791983 -4.468615 -52.292452 -3.003467 -0.856116 79.310591 7.820414 2.985744 -37.658654 0.000000 0.000000 0.000000 -8.778970 0.768528 -24.784724 -0.831868 4.641253 84.382375 -0.941295 0.148277 -4.909147 0.000000 0.000000 0.000000 -5.013589 0.126199 15.711658 0.213717 0.038715 -4.314152 4.239534 -0.901594 5.791505 -10.947465 7.193029 -22.092427 0.000000 0.000000 0.000000 -1.802288 -10.371295 3.664665 -2.107661 -45.095596 -1.976690 117.288743 -21.587228 -30.604333 0.000000 0.000000 0.000000 12.586869 13.567346 5.107119 54.840623 11.353618 -0.252605 -9.990455 53.103574 -2.987971 0.000000 0.000000 0.000000 
-0.000834 0.688496 0.007464 1.680481 0.858417 3.488925 1.669322 -4.477366 -52.315634 -2.792190 -0.990187 79.509150 7.976068 3.288032 -38.455196 0.000000 0.000000 0.000000 -8.990504 0.744579 -24.835125 -0.681858 4.608406 84.507313 -1.036476 0.302270 -5.641293 0.000000 0.000000 0.000000 -5.135099 0.150766 15.400956 0.396249 -0.032534 -4.590192 4.631497 -0.595915 6.146647 -11.299980 7.401124 -22.169183 0.000000 0.000000 0.000000 -1.778772 -9.754344 3.433362 -1.636945 -45.650485 -2.180862 117.677852 -20.554739 -29.369274 0.000000 0.000000 0.000000 12.051749 13.949160 5.305549 55.015079 11.661991 -0.144762 -10.379397 51.733485 -3.029842 0.000000 0.000000 0.000000 
-0.000800 0.687729 0.007875 1.648938 0.494602 3.176378 1.952184 -4.235965 -52.106997 -3.026423 -0.587841 79.788014 7.948853 3.347060 -38.297830 0.000000 0.000000 0.000000 -9.009968 0.757969 -24.618155 -0.387704 4.519433 84.264711 -1.377314 -1.018202 -5.091749 0.000000 0.000000 0.000000 -5.060993 0.143311 15.180562 0.475916 -0.074307 -4.491497 4.858258 -0.176224 6.021562 -11.029212 7.270725 -22.200853 0.000000 0.000000 0.000000 -1.434052 -9.411159 3.288268 -1.974705 -44.387766 -2.019058 117.603269 -20.387110 -29.207470 0.000000 0.000000 0.000000 12.409250 13.770997 5.261514 54.466524 11.793047 -0.082115 -10.190192 50.410758 -2.829801 0.000000 0.000000 0.000000 
-0.000973 0.686983 0.008718 1.672029 0.086881 3.008812 2.237840 -3.965876 -51.695937 -3.267330 -0.147996 79.708779 8.056600 3.506638 -38.949428 0.000000 0.000000 0.000000 -9.085250 0.763805 -24.311696 0.232474 4.079451 83.945028 -2.408433 -3.852646 -5.437052 0.000000 0.000000 0.000000 -4.906593 0.127041 14.851727 0.258841 0.015972 -4.579678 5.221276 -0.006772 6.037475 -11.106320 7.291103 -22.353814 0.000000 0.000000 0.000000 -1.052751 -8.823682 3.074014 -3.423955 -43.516613 -1.535638 117.708304 -21.563296 -30.917181 0.000000 0.000000 0.000000 12.254873 13.041808 4.882080 55.020199 11.498144 -0.213003 -8.960893 49.717769 -2.253599 0.000000 0.000000 0.000000 
-0.001275 0.686747 0.009646 1.532687 -0.135454 2.992051 2.470630 -3.779037 -51.399552 -3.253663 -0.061257 79.566668 8.163508 3.586336 -39.630402 0.000000 0.000000 0.000000 -8.928616 0.798797 -23.864670 0.552557 3.828723 83.415817 -3.136646 -5.490892 -6.572544 0.000000 0.000000 0.000000 -4.644749 0.092400 14.519270 0.279067 0.004834 -4.581541 5.275976 -0.034915 5.786751 -10.747352 7.116614 -21.685847 0.000000 0.000000 0.000000 -0.971253 -8.639495 3.011920 -4.375376 -41.788057 -1.200641 117.917830 -22.601979 -32.469425 0.000000 0.000000 0.000000 12.917489 12.939605 4.812210 54.965327 10.637164 -0.575334 -9.338408 49.430936 -2.450832 0.000000 0.000000 0.000000 
-0.001583 0.686423 0.010369 1.504530 -0.484972 2.945641 2.801736 -3.554533 -51.606778 -3.480394 0.338120 79.953740 8.034537 3.562422 -38.841513 0.000000 0.000000 0.000000 -9.019148 0.804558 -23.826465 0.933788 3.635575 83.405228 -3.477001 -6.424076 -6.780609 0.000000 0.000000 0.000000 -4.369150 0.059436 14.389212 0.055758 0.100846 -4.777004 5.320128 0.126826 5.874997 -10.751462 7.091378 -22.109450 0.000000 0.000000 0.000000 -1.067315 -8.180201 2.849294 -5.607109 -41.033567 -0.857361 118.407890 -24.279100 -35.195317 0.000000 0.000000 0.000000 13.202599 11.934074 4.327787 55.155221 9.611628 -1.055185 -8.017704 49.965628 -1.893162 0.000000 0.000000 0.000000 
-0.001747 0.686231 0.010807 1.511702 -0.646001 2.812628 2.684156 -3.567864 -51.565704 -3.286869 0.205818 80.192329 7.990081 3.656693 -38.495460 0.000000 0.000000 0.000000 -9.068942 0.794918 -23.418699 1.231930 3.421341 83.384286 -3.939868 -7.344666 -8.002248 0.000000 0.000000 0.000000 -3.976114 0.004210 14.296006 -0.199301 0.207428 -4.816178 5.073958 0.052007 6.032365 -10.658012 7.018777 -22.411114 0.000000 0.000000 0.000000 -1.096597 -8.386965 2.926842 -6.697185 -40.303127 -0.566125 118.675173 -24.908419 -36.240846 0.000000 0.000000 0.000000 13.324382 11.429729 4.066285 55.688752 8.607880 -1.542143 -7.668595 50.006887 -1.748739 0.000000 0.000000 0.000000 
-0.001728 0.686155 0.011153 1.441566 -0.621609 2.692569 2.674231 -3.588801 -51.692583 -3.213076 0.111807 80.535171 7.881743 3.578995 -37.829273 0.000000 0.000000 0.000000 -9.224914 0.754911 -23.016999 1.501716 3.107617 83.293719 -4.080055 -7.396423 -8.976064 0.000000 0.000000 0.000000 -3.726479 -0.034263 14.329825 -0.362970 0.275379 -4.736253 5.031697 -0.036373 5.904198 -10.621458 6.975986 -22.629972 0.000000 0.000000 0.000000 -1.445644 -8.379999 2.930026 -7.768229 -40.308387 -0.275780 118.883794 -25.521777 -37.226370 0.000000 0.000000 0.000000 13.491788 11.002823 3.839899 55.640078 7.687246 -1.956279 -7.036748 50.539286 -1.508397 0.000000 0.000000 0.000000 
